<svg xmlns="http://www.w3.org/2000/svg" xmlns:xlink="http://www.w3.org/1999/xlink" width="66.328" height="49.99" viewBox="0 0 66.328 49.99"><defs><style>.a,.c{fill:#ef4851;}.b{clip-path:url(#a);}.c{fill-rule:evenodd;}</style><clipPath id="a"><rect class="a" width="66.328" height="49.99" transform="translate(129 286)"/></clipPath></defs><g class="b" transform="translate(-129 -286)"><g transform="translate(137.074 286.973)"><g transform="translate(0 0)"><path class="c" d="M27.362,1.734c14.174,0,25.691,10.632,25.691,23.791S41.537,49.374,27.362,49.374,1.734,38.683,1.734,25.525,13.188,1.734,27.362,1.734ZM8.062,21.061a7.885,7.885,0,0,1,.253,1.292c.063-.47.127-.881.19-1.292l-.253-.294Zm1.772,1.88.38-.352L9.9,22.353C9.9,22.529,9.834,22.705,9.834,22.94ZM8.315,28.756a9.32,9.32,0,0,1-.253,1.292l.19.235.253-.235C8.442,29.637,8.379,29.167,8.315,28.756Zm1.582,0,.316-.235-.38-.352C9.834,28.345,9.9,28.58,9.9,28.756ZM8.315,39.095v.059l.253-.294a29.165,29.165,0,0,1-2.468-3v.059l.063.059v.059l.127.235h0v.059h.063l.063.059.063.176.063.059v.059h0l.063.059V36.8l.063.059.063.059v.059l.063.059V37.1l.063.059h0v.059l.063.059.063.059.063.059v.059l.063.059v.059h0l.063.059h0l.063.117h0L7.3,37.8l.063.059v.059l.063.059h0v.059l.063.059h.063v.059l.063.059v.059l.063.059v.059h0l.063.059h.063v.059l.063.059v.059l.063.059L8,38.742H8l.063.059.063.059v.059l.063.059v.059h.063Zm1.2-1.527a15.959,15.959,0,0,0,1.076-1.7c-.316-.587-.57-1.234-.886-1.88a16.22,16.22,0,0,1-1.455-1.41c-.443.587-.886,1.234-1.329,1.821A21.7,21.7,0,0,0,9.518,37.567Zm2.151-3.936a18.443,18.443,0,0,0,1.076-3.29l-1.329-.881-1.139,1.057a21.162,21.162,0,0,0,.823,2.643C11.29,33.338,11.479,33.455,11.669,33.632Zm1.392-4.876.063-.587-.443.352Zm.253-2.467V24.82c-.633-.411-1.266-.822-1.9-1.292-.57.529-1.2,1.057-1.772,1.645v.764c.57.529,1.2,1.116,1.772,1.586Zm-.19-3.348c0-.235-.063-.411-.063-.587l-.38.235Zm-.38-2.232a19.492,19.492,0,0,0-1.076-3.231,4.014,4.014,0,0,0-.57.47,14.125,14.125,0,0,0-.823,2.643l1.139,1.057C11.859,21.3,12.3,21,12.745,20.708Zm-2.151-5.463c-.316-.587-.7-1.175-1.076-1.762a22.2,22.2,0,0,0-2.594,3.231l1.329,1.762c.506-.47.949-.94,1.455-1.351C10.024,16.479,10.277,15.833,10.593,15.245Zm-2.025-3-.253-.294h0l-.063.059-.063.059v.059l-.063.059v.059H8.062L8,12.308H8v.059l-.063.059-.063.059v.059H7.809V12.6l-.063.059-.063.059h0v.059l-.063.059V12.9H7.556v.059l-.063.059-.063.059v.059h0l-.063.059v.059H7.3l-.063.059v.059l-.063.117h0l-.063.059h0V13.6H7.05v.059l-.063.059-.063.117-.063.059v.059h0l-.063.059v.059H6.733v.059l-.063.117-.063.059v.059H6.544v.117l-.063.059-.063.117-.063.059-.063.059v.059h0l-.127.235v.059H6.1v.059A36.448,36.448,0,0,1,8.569,12.249ZM5.784,32.457a11.047,11.047,0,0,0,.57-2.056l-.316-.47c-.253.47-.506,1-.759,1.527A5.048,5.048,0,0,0,5.784,32.457Zm1.139-6.579v-.646c-.316-.411-.57-.822-.886-1.175-.253.47-.506,1-.759,1.469.253.529.506,1.057.759,1.527C6.354,26.641,6.607,26.289,6.923,25.878Zm-.57-5.169a11.047,11.047,0,0,0-.57-2.056,5.048,5.048,0,0,0-.506,1c.253.529.506,1,.759,1.527Zm3.037-9.927.063-.059v-.059h.063V10.6h.063v-.059l.063-.059h0l.063-.059.063-.059h0l.063-.059h0l.063-.059v-.059h.063v-.059l.19-.117V9.958h.063V9.9h.063l.063-.059.253-.235V9.547l.316-.235.063-.059h0l.063-.059.063-.059.19-.176.063-.059.063-.059h.063l.063-.059a5.583,5.583,0,0,0,.633.529,26.01,26.01,0,0,0-2.468,1.88Zm3.86-.411.38.352a32.322,32.322,0,0,0-2.151,2.937,13.925,13.925,0,0,0-.823-1.234A27.826,27.826,0,0,1,13.251,10.37ZM14.643,11.9c.38.411.7.881,1.012,1.292a32.792,32.792,0,0,0-3.164,1.762A27.224,27.224,0,0,1,14.643,11.9Zm1.835,2.526c.19.294.316.529.506.822a19.81,19.81,0,0,0-1.645,3.994c-.38.235-.823.411-1.2.646A21.691,21.691,0,0,0,13,16.479,25.245,25.245,0,0,1,16.478,14.423Zm1.392,2.585c.127.294.253.646.38,1a6.625,6.625,0,0,0-.949.411A6.586,6.586,0,0,1,17.871,17.007Zm.886,2.408a22.618,22.618,0,0,1,.823,4.112A21.767,21.767,0,0,0,16.289,24.7l-.253-.117a24.889,24.889,0,0,1,.633-4.347C17.364,19.945,18.06,19.651,18.756,19.416Zm-4.113,2.937a4.792,4.792,0,0,0-.127-.94l.316-.235C14.77,21.589,14.707,21.942,14.643,22.353Zm5,2.643v1.057a6.078,6.078,0,0,1-1.455-.529C18.63,25.349,19.136,25.173,19.642,25Zm-.063,2.585a22.618,22.618,0,0,1-.823,4.112l-2.088-.881a24.1,24.1,0,0,1-.633-4.347l.253-.117A31.157,31.157,0,0,0,19.579,27.581Zm-4.746,2.291-.316-.176a5.459,5.459,0,0,0,.127-.94C14.707,29.108,14.77,29.52,14.833,29.872Zm3.417,3.172-.38,1.057a6.586,6.586,0,0,1-.57-1.41Zm-1.266,2.82c-.19.235-.316.529-.506.764a24.907,24.907,0,0,1-3.48-2,21.691,21.691,0,0,0,1.139-3.407,11.316,11.316,0,0,0,1.2.587A18.971,18.971,0,0,0,16.985,35.864ZM15.656,37.92c-.316.411-.633.822-1.012,1.292A27.964,27.964,0,0,1,12.492,36.1,24.136,24.136,0,0,0,15.656,37.92Zm-2.025,2.408-.38.411c-.886-.646-1.772-1.351-2.594-2.056a9.227,9.227,0,0,0,.823-1.292A21.46,21.46,0,0,0,13.631,40.328ZM12.175,41.8a5.582,5.582,0,0,0-.633.529l-.063-.059-.063-.059-.063-.059H11.29l-.19-.176-.063-.059-.063-.059h0L10.91,41.8l-.316-.294h0l-.253-.235-.063-.059h-.063v-.059h-.063v-.059l-.19-.176h0L9.9,40.857h0L9.834,40.8h0l-.063-.059v-.059l-.063-.059H9.644v-.059H9.581V40.5H9.518v-.059l-.063-.059h0l-.063-.059.316-.47A19.277,19.277,0,0,0,12.175,41.8ZM14.707,6.61a10.43,10.43,0,0,1,1.076.646A13.7,13.7,0,0,0,13.5,8.49a7.409,7.409,0,0,0-.759-.646h.063V7.785h.063V7.726h.063V7.667H13l.063-.059h.063V7.55h.063l.063-.059h.063V7.432h.063l.063-.059h0l.063-.059h.063V7.256h.063l.063-.059h.063V7.139h.063l.063-.059h.063V7.021h.063l.063-.059h.063V6.9H14.2l.063-.059h.063V6.786h.063l.063-.059h.063V6.669l.127-.059h.063Zm3.164,2.115c.759.646,1.455,1.292,2.151,2-.316.352-.633.764-.949,1.116-.633.235-1.329.47-1.962.7-.443-.587-.886-1.234-1.392-1.821A22.262,22.262,0,0,1,17.871,8.725Zm-3.227.881-.063-.059.316-.176Zm7.024,3.055c.57.822,1.139,1.7,1.645,2.585-.253.529-.57,1.116-.759,1.645-.949.176-1.9.411-2.784.646-.316-.764-.633-1.527-1.012-2.291a15.632,15.632,0,0,1,1.329-2.173C20.592,12.954,21.1,12.778,21.667,12.661Zm2.974,5.4a17.684,17.684,0,0,1,1.139,4.347,20.214,20.214,0,0,0-3.227.411,22.762,22.762,0,0,1,1.139-4.641A5.241,5.241,0,0,0,24.641,18.065Zm-3.607,4.288a29.822,29.822,0,0,0-.759-3.407,13.261,13.261,0,0,1,1.645-.411A25.876,25.876,0,0,0,21.035,22.353ZM25.97,23.88a14.294,14.294,0,0,1,.063,1.645,15.331,15.331,0,0,1-.063,1.7,34.154,34.154,0,0,1-3.544-.47,8.059,8.059,0,0,1-.063-1.234,6.958,6.958,0,0,1,.063-1.175A23.306,23.306,0,0,1,25.97,23.88Zm-.19,4.758a16.415,16.415,0,0,1-1.139,4.347,5.241,5.241,0,0,1-.949-.117,22.216,22.216,0,0,1-1.139-4.582A30.1,30.1,0,0,0,25.78,28.638Zm-3.86,3.936c-.57-.117-1.139-.294-1.645-.411a29.822,29.822,0,0,0,.759-3.407A25.876,25.876,0,0,0,21.92,32.574Zm1.392,3.29c-.506.881-1.076,1.7-1.645,2.526-.57-.117-1.076-.235-1.582-.352a15.632,15.632,0,0,1-1.329-2.173c.38-.764.7-1.527,1.012-2.291.886.235,1.835.47,2.784.646C22.743,34.748,23.059,35.335,23.313,35.864Zm-3.291,4.464c-.7.7-2.151,2-2.151,2s-1.519-1.292-2.151-2a20.393,20.393,0,0,0,1.392-1.821,20.209,20.209,0,0,0,2.025.764A13.08,13.08,0,0,0,20.022,40.328ZM14.9,41.679l-.316-.117.063-.059Zm.886,2.173a10.43,10.43,0,0,1-1.076.646h-.063V44.44l-.127-.059h-.063v-.059H14.39l-.063-.059h-.063v-.059H14.2l-.063-.059h-.063v-.059h-.063l-.063-.059h-.063l-.063-.059h-.063v-.059h-.063l-.063-.059h-.063v-.059H13.5v-.059h-.063v-.059h-.063l-.063-.059h-.063v-.059h-.063l-.063-.059h-.063v-.059H13l-.063-.059h0l-.063-.059h-.063v-.059h-.063c.253-.235.506-.411.759-.646A13.7,13.7,0,0,0,15.782,43.853ZM17.934,5.024l1.519.7-.253.176c-.57.176-1.2.411-1.772.646a8.112,8.112,0,0,0-1.2-.764l.127-.059h0l.063-.059h.063V5.611H16.6l.127-.059V5.494h.127l.063-.059h.127V5.376h.063l.063-.059H17.3V5.259h.127V5.2h.127l.063-.059h.063l.063-.059h.127V5.024h.063Zm3.544,1.821c.506.294,1.012.587,1.519.94-.7.587-1.329,1.175-1.962,1.821-.633-.646-1.266-1.234-1.962-1.821.253-.176.57-.352.823-.529A15.674,15.674,0,0,1,21.477,6.845ZM24.2,8.725c.7.587,1.392,1.234,2.025,1.88a28.554,28.554,0,0,0-3.923.411l-.253-.294C22.743,10.017,23.439,9.371,24.2,8.725Zm3.291,3.29A26.98,26.98,0,0,1,29.7,15.245a8.363,8.363,0,0,0-.633,1.292,16.6,16.6,0,0,0-1.709-.059,15.4,15.4,0,0,0-1.645.059,8.363,8.363,0,0,0-.633-1.292,36.448,36.448,0,0,1,2.151-3.231h.253ZM24.2,13.659c-.253-.411-.57-.881-.886-1.292.633-.117,1.266-.176,1.962-.235A13.612,13.612,0,0,0,24.2,13.659Zm6.834,4.523a22.878,22.878,0,0,1,1.2,4.641,20.094,20.094,0,0,0-3.291-.411,25.964,25.964,0,0,1,1.139-4.347A5.241,5.241,0,0,0,31.033,18.182Zm-3.67,4.171a20.513,20.513,0,0,0-1.076-4.406H28.5A25.2,25.2,0,0,0,27.362,22.353Zm5,2v2.408a34.154,34.154,0,0,1-3.544.47,15.331,15.331,0,0,1-.063-1.7,14.294,14.294,0,0,1,.063-1.645A23.306,23.306,0,0,1,32.361,24.35Zm-.127,3.936a22.333,22.333,0,0,1-1.2,4.582,5.241,5.241,0,0,1-.949.117,23.3,23.3,0,0,1-1.139-4.347A29.565,29.565,0,0,0,32.235,28.286ZM28.5,33.1a7.4,7.4,0,0,1-1.139.059,7,7,0,0,1-1.076-.059,20.868,20.868,0,0,0,1.076-4.347A25.963,25.963,0,0,0,28.5,33.1Zm1.2,2.761a22.424,22.424,0,0,1-2.215,3.172h-.253a28.723,28.723,0,0,1-2.151-3.172,12.152,12.152,0,0,0,.633-1.292c.57,0,1.076.059,1.645.059s1.139-.059,1.709-.059A12.151,12.151,0,0,0,29.7,35.864Zm-4.43,3.113c-.7-.059-1.329-.117-1.962-.235a10.236,10.236,0,0,0,.886-1.351C24.515,37.92,24.895,38.448,25.274,38.977Zm.949,1.527c-.633.646-1.329,1.234-2.025,1.821a22.265,22.265,0,0,1-2.151-2l.253-.294A28.549,28.549,0,0,0,26.223,40.5ZM23,43.265c-.506.352-1.012.7-1.519,1a15.675,15.675,0,0,1-1.582-.411,7.129,7.129,0,0,1-.823-.587c.7-.529,1.329-1.175,1.962-1.762C21.667,42.09,22.3,42.737,23,43.265ZM19.453,45.38l-1.519.7-.063-.059h-.127l-.063-.059h0l-.063-.059h-.127l-.063-.059h-.063l-.063-.059h-.127v-.059h-.127v-.059h-.127v-.059h-.127v-.059h-.063L16.6,45.5h0l-.063-.059h-.127V45.38h-.063l-.127-.059a8.112,8.112,0,0,0,1.2-.764c.57.235,1.2.47,1.772.646ZM21.1,4.025c.38.059.7.176,1.012.235-.38.176-.7.411-1.076.587-.38-.176-.7-.352-1.076-.529l.253-.059h0l.063-.059h.19V4.143h.19l.19-.059h.063V4.025h.19Zm6.265,2.526c.7.411,1.329.822,1.962,1.234-.7.587-1.329,1.175-1.962,1.821-.57-.646-1.266-1.234-1.9-1.821C26.034,7.374,26.73,6.963,27.362,6.551ZM30.59,8.725c.759.646,1.455,1.292,2.151,2l-.253.294a29.628,29.628,0,0,0-3.923-.411A19.723,19.723,0,0,1,30.59,8.725ZM24.2,6.845a3.458,3.458,0,0,0-.57-.411,5.653,5.653,0,0,1,1.392-.176A7.129,7.129,0,0,0,24.2,6.845Zm10.441,6.227a16.087,16.087,0,0,1,1.392,2.173,18.083,18.083,0,0,0-1.012,2.291c-.949-.235-1.835-.47-2.784-.646-.253-.529-.506-1.116-.759-1.645a16.357,16.357,0,0,1,1.645-2.585C33.627,12.778,34.133,12.954,34.639,13.072Zm2.278,3.936.57,1.41a5.1,5.1,0,0,0-1.012-.411C36.6,17.654,36.791,17.36,36.918,17.007ZM30.59,13.659c-.38-.529-.7-1.057-1.076-1.527.633.059,1.266.117,1.9.235C31.159,12.778,30.843,13.248,30.59,13.659Zm7.467,6.579a20.142,20.142,0,0,1,.7,4.347L38.5,24.7a21.767,21.767,0,0,0-3.291-1.175,18.277,18.277,0,0,1,.823-4.112A20.363,20.363,0,0,1,38.057,20.238Zm-4.3,2.115a25.876,25.876,0,0,0-.886-3.818,16.832,16.832,0,0,1,1.645.411A20.542,20.542,0,0,0,33.754,22.353Zm5,4.112a19.577,19.577,0,0,1-.7,4.347,20.559,20.559,0,0,1-2.025.881,18.277,18.277,0,0,1-.823-4.112A31.157,31.157,0,0,0,38.5,26.347Zm-4.24,5.7c-.57.117-1.076.294-1.645.411a25.876,25.876,0,0,0,.886-3.818A20.543,20.543,0,0,0,34.513,32.163Zm2.974.529-.57,1.41c-.127-.352-.316-.7-.443-1.057C36.854,32.927,37.171,32.809,37.487,32.692Zm-1.455,3.172a16.087,16.087,0,0,1-1.392,2.173l-1.519.352a13.613,13.613,0,0,1-1.645-2.526c.253-.529.506-1.116.759-1.645.949-.176,1.835-.411,2.784-.646A18.083,18.083,0,0,0,36.032,35.864Zm-4.619,2.878c-.633.117-1.266.176-1.9.235.38-.529.7-1.057,1.076-1.586C30.843,37.861,31.159,38.331,31.412,38.742Zm1.329,1.586a22.265,22.265,0,0,1-2.151,2A19.289,19.289,0,0,1,28.565,40.5a29.775,29.775,0,0,0,3.923-.47Zm-3.417,2.937a21.948,21.948,0,0,1-1.962,1.292c-.633-.411-1.266-.822-1.9-1.292.633-.529,1.329-1.175,1.9-1.762C28,42.09,28.628,42.737,29.324,43.265Zm-4.24,1.586c-.506-.059-1.012-.117-1.455-.176.19-.117.38-.294.57-.411C24.452,44.44,24.768,44.675,25.084,44.851ZM22.11,46.79a5.012,5.012,0,0,1-1.012.294h-.127v-.059h-.127l-.19-.059h-.127v-.059h-.19l-.063-.059h-.063l-.253-.059c.38-.176.7-.352,1.076-.529C21.414,46.437,21.731,46.614,22.11,46.79ZM35.082,25l1.519.529a7.787,7.787,0,0,1-1.519.529V25Zm-7.72-21.03A8.118,8.118,0,0,0,28.5,4.26a4.819,4.819,0,0,1-.759.411h-.7a4.819,4.819,0,0,1-.759-.411A7.324,7.324,0,0,0,27.362,3.967Zm7.467,3.29c.316.176.57.352.886.529-.7.587-1.329,1.175-1.962,1.821-.633-.646-1.266-1.234-1.962-1.821.506-.352,1.012-.646,1.519-.94A14.563,14.563,0,0,1,34.829,7.256Zm2.088,1.469c.759.646,1.455,1.292,2.151,2-.506.587-.949,1.234-1.392,1.821-.7-.235-1.329-.47-2.025-.7a13.66,13.66,0,0,0-.886-1.116C35.462,10.017,36.158,9.371,36.918,8.725ZM40.081,11.9a20.921,20.921,0,0,1,2.151,3.055,31.806,31.806,0,0,0-3.1-1.762C39.449,12.778,39.765,12.308,40.081,11.9ZM30.59,6.845a7.7,7.7,0,0,0-.886-.587,5.786,5.786,0,0,1,1.455.176A3.458,3.458,0,0,0,30.59,6.845Zm13.1,11.1a21.161,21.161,0,0,1,.823,2.643c-.38.352-.759.7-1.2,1.057a9.774,9.774,0,0,0-1.266-.94,19.266,19.266,0,0,1,1.012-3.231A2.455,2.455,0,0,1,43.688,17.947Zm-3.1,1.938c-.38-.235-.759-.411-1.139-.646A24.308,24.308,0,0,0,37.8,15.245c.127-.294.316-.529.443-.822a22.629,22.629,0,0,1,3.544,2.056A21.95,21.95,0,0,0,40.588,19.886Zm4.3,2.467.063.587-.38-.352Zm.19,2.82v.764a14.725,14.725,0,0,1-1.772,1.586c-.57-.411-1.2-.822-1.835-1.234V24.82a19.9,19.9,0,0,0,1.835-1.292A15.1,15.1,0,0,1,45.08,25.173Zm-.127,3a1.861,1.861,0,0,0-.063.587l-.316-.235Zm-.443,2.35a21.161,21.161,0,0,1-.823,2.643,5.483,5.483,0,0,1-.633.47,18.319,18.319,0,0,1-1.012-3.29c.443-.294.886-.587,1.266-.881C43.752,29.813,44.131,30.166,44.511,30.518ZM41.79,34.63a22.4,22.4,0,0,1-3.544,2c-.127-.235-.316-.529-.443-.764a22.937,22.937,0,0,0,1.645-4.053,10.494,10.494,0,0,0,1.139-.587A21.95,21.95,0,0,0,41.79,34.63Zm.443,1.469a21.453,21.453,0,0,1-2.151,3.113c-.316-.47-.633-.881-.949-1.292A23.457,23.457,0,0,0,42.233,36.1Zm-3.164,4.229a22.264,22.264,0,0,1-2.151,2,22.265,22.265,0,0,1-2.151-2,13.081,13.081,0,0,0,.886-1.057c.7-.235,1.329-.47,2.025-.764A20.393,20.393,0,0,0,39.069,40.328Zm-3.354,2.937a7.7,7.7,0,0,1-.886.587,14.564,14.564,0,0,1-1.519.411c-.506-.294-1.012-.646-1.519-1,.7-.529,1.329-1.175,1.962-1.762C34.386,42.09,35.019,42.737,35.715,43.265Zm-4.556,1.41c-.443.059-.949.117-1.455.176.316-.176.57-.411.886-.587C30.779,44.381,30.969,44.558,31.159,44.675ZM28.5,46.79a8.118,8.118,0,0,1-1.139.294,7.324,7.324,0,0,1-1.076-.294l.759-.352h.7Zm11.39-16.918c.063-.352.127-.764.19-1.116.063.294.127.587.19.94Zm1.709-1.7.506.352-.38.235Zm-1.519-5.815c-.063-.411-.127-.764-.19-1.175l.38.235C40.208,21.707,40.145,22.059,40.081,22.353Zm1.645,0,.38.235-.506.352C41.663,22.705,41.663,22.529,41.727,22.353Zm6.961-7.167h0a27.538,27.538,0,0,0-2.531-2.937l.253-.294h.063l.063.059v.059l.127.117v.059l.063.059h0l.127.176.063.059.063.059h0l.063.059h0v.059l.063.059.063.059V12.9l.063.059h0v.059H47.3l.063.059v.059l.063.059h0v.059l.063.059v.059l.063.059h.063v.059h0l.063.059V13.6l.063.059v.059l.063.059h0l.063.059v.059l.063.059h0l.063.059v.059h0l.063.059v.059l.063.059.063.059.063.117v.059l.063.059h0l.063.059v.059h0l.063.059v.059l.063.059v.059l.063.059v.059l.063.059v.059Zm-3.67-3.994c-.759-.646-1.582-1.292-2.4-1.88.19-.176.443-.352.633-.529l.316.235.063.059.19.176v.059l.316.235.063.059.443.411.063.059h0l.38.352.063.059h0l.063.059.127.176H45.4v.059Zm-3.733-2.7a21.668,21.668,0,0,0-2.278-1.234,6.343,6.343,0,0,1,1.076-.646h.063l.063.059h.063v.059h.063l.127.117h.063l.063.059h.063v.059h.063l.063.059h0l.063.059H40.9v.059h.063l.063.059h.063v.059h.063l.063.059h.063v.059h.063l.063.059h.063v.059h.063V7.55H41.6l.063.059h.063v.059h.063l.063.059h.063v.059h.063v.059h0ZM37.36,6.551c-.57-.235-1.2-.47-1.772-.646l-.316-.176c.506-.235,1.076-.47,1.582-.7h.063v.059h.127v.059h.127l.063.059h.127v.059h.127v.059h.127v.059h.127v.059h.127v.059h.127l.063.059h.063l.063.059h.063l.063.059h.063v.059H38.5v.059A12.853,12.853,0,0,0,37.36,6.551Zm-3.607-1.7c-.38-.176-.759-.411-1.139-.587.38-.059.7-.176,1.012-.235h.253v.059h.19l.063.059h.19V4.2h.19V4.26h.19v.059h.127C34.45,4.5,34.07,4.672,33.754,4.848ZM48.687,35.864v.059l-.063.059v.059l-.063.059v.059l-.063.059v.059l-.063.059h0l-.063.059v.059h0l-.063.059v.059l-.063.059v.059l-.063.117-.063.059-.063.059v.059h-.063v.059h0l-.063.059v.059l-.063.059v.059l-.063.059h0l-.063.059v.059l-.063.059h0l-.063.059h0v.059l-.063.059-.063.059V37.8l-.063.059h0v.059h-.063v.059l-.063.059-.063.059v.059h0l-.063.059v.059l-.063.059h-.063v.059h0l-.063.059v.059l-.063.059-.063.059-.127.117V38.8l-.063.059v.059l-.127.117h0l-.063.059-.063.059-.253-.294a23.259,23.259,0,0,0,2.531-3ZM32.615,46.79l1.139-.529c.316.176.7.352,1.076.529h-.19v.059h-.19v.059h-.19v.059h-.253v.059h-.19v.059h-.19A9.53,9.53,0,0,1,32.615,46.79Zm2.658-1.41.316-.176c.57-.176,1.2-.411,1.772-.646a12.854,12.854,0,0,0,1.139.764h0l-.063.059h-.063l-.063.059h-.063V45.5H38.12l-.063.059h-.063l-.063.059h-.063l-.063.059H37.74l-.063.059H37.55v.059h-.127v.059H37.3v.059h-.127v.059h-.127l-.063.059h-.063l-.063.059C36.348,45.85,35.778,45.615,35.272,45.38Zm3.733-1.527a21.668,21.668,0,0,0,2.278-1.234,6.983,6.983,0,0,1,.7.646h0v.059h-.063l-.063.059H41.79v.059h-.063l-.063.059H41.6v.059h-.063v.059h-.063l-.063.059h-.063v.059h-.063l-.063.059h0l-.063.059h-.063v.059h-.063l-.063.059H40.9v.059h-.127v.059h-.063l-.063.059h0l-.063.059h-.063v.059h-.063l-.127.059v.059h-.063l-.063.059h-.063V44.5h-.063A6.343,6.343,0,0,1,39.006,43.853ZM42.613,41.8a18.639,18.639,0,0,0,2.4-1.938l.38.47h0l-.063.059-.127.176h-.063v.059H45.08l-.38.352v.059h-.063l-.443.47h-.063l-.316.294v.059l-.19.176h-.063l-.316.294C43.056,42.149,42.8,41.973,42.613,41.8Zm-2.721-.117.19-.176.063.059Zm1.266-1.351a28.489,28.489,0,0,0,2.151-2.937,9.227,9.227,0,0,0,.823,1.292,30.391,30.391,0,0,1-2.658,2.056Zm3.037-4.464a17.229,17.229,0,0,0,.823-1.88,10.681,10.681,0,0,0,1.455-1.41c.506.587.949,1.234,1.392,1.821a21.7,21.7,0,0,1-2.594,3.172A15.959,15.959,0,0,1,44.195,35.864Zm2.025-5.815a9.319,9.319,0,0,0,.253-1.292c.063.411.127.881.19,1.292l-.19.235Zm.253-7.7a7.884,7.884,0,0,0-.253-1.292l.253-.294.19.294C46.6,21.472,46.536,21.883,46.473,22.353Zm-1.455-5.228a17.229,17.229,0,0,0-.823-1.88,13.167,13.167,0,0,1,1.076-1.762,22.2,22.2,0,0,1,2.594,3.231c-.443.587-.886,1.175-1.392,1.762A15.284,15.284,0,0,0,45.017,17.125Zm-1.709-3.466a32.322,32.322,0,0,0-2.151-2.937l.316-.352a22.122,22.122,0,0,1,2.658,2.056A13.926,13.926,0,0,0,43.309,13.659ZM40.081,9.606l-.19-.235.253.176Zm8.29,11.1.38.47c.253-.529.506-1,.759-1.527-.19-.352-.316-.7-.506-1A19.848,19.848,0,0,0,48.371,20.708Zm1.9.881c-.19.352-.38.646-.57,1l.57,1.057a6.708,6.708,0,0,0,.316-1.057A4.7,4.7,0,0,0,50.269,21.589Zm-1.519,2.467c-.316.352-.633.764-.949,1.175v.646c.316.411.633.764.949,1.175.253-.47.506-1,.759-1.527C49.257,25.055,49,24.526,48.751,24.057ZM5.088,22.588c-.19-.352-.443-.646-.633-1a8.573,8.573,0,0,1-.316,1,6.708,6.708,0,0,1,.316,1.057C4.645,23.293,4.9,22.94,5.088,22.588Zm45.181,4.876-.57,1.057c.19.294.38.646.57,1,.127-.352.253-.7.38-1Zm-1.519,2.467-.38.47A19.848,19.848,0,0,0,49,32.457c.19-.294.316-.646.506-1C49.257,30.929,49,30.4,48.751,29.931ZM5.088,28.521c-.19-.352-.443-.7-.633-1.057a6.708,6.708,0,0,1-.316,1.057,6.074,6.074,0,0,1,.316,1C4.645,29.167,4.9,28.815,5.088,28.521Z" transform="translate(-1.734 -1.734)"/></g></g></g></svg>